<?xml version="1.0" encoding="UTF-8"?>
<svg xmlns="http://www.w3.org/2000/svg" version="1.1" viewBox="0 0 1000 1000">
  <!-- Generator: Adobe Illustrator 30.2.1, SVG Export Plug-In . SVG Version: 2.1.1 Build 1)  -->
  <defs>
    <style>
      .st0 {
        fill: #231f20;
      }

      .st1 {
        fill: #be3e26;
      }

      .st2, .st3 {
        fill: #aa1f24;
      }

      .st4 {
        stroke: #aa1f24;
      }

      .st4, .st5 {
        fill: none;
        stroke-width: 5px;
      }

      .st4, .st5, .st6 {
        stroke-miterlimit: 10;
      }

      .st7 {
        font-size: 47.22px;
      }

      .st7, .st8, .st9, .st10, .st6 {
        font-family: PlantagenetCherokee, 'Plantagenet Cherokee';
      }

      .st8 {
        font-size: 52.52px;
      }

      .st11, .st12, .st9, .st10, .st6 {
        fill: #771978;
      }

      .st5, .st6 {
        stroke: #aa1e23;
      }

      .st12 {
        letter-spacing: 0em;
      }

      .st3, .st13 {
        letter-spacing: 0em;
      }

      .st9 {
        font-size: 43.94px;
      }

      .st10, .st6 {
        font-size: 64.11px;
      }

      .st14 {
        display: none;
      }

      .st6 {
        stroke-width: .25px;
      }
    </style>
  </defs>
  <g id="Back_up">
    <path class="st4" d="M448.77,500c0,20.14-8.28,38.36-21.6,51.44-12.98,12.7-30.76,20.56-50.38,20.56h-.04c-19.62,0-37.4-7.86-50.38-20.56-13.32-13.08-21.6-31.3-21.6-51.44s8.28-38.36,21.6-51.44c12.98-12.7,30.76-20.56,50.38-20.56h.04c19.62,0,37.4,7.86,50.38,20.56,13.32,13.08,21.6,31.3,21.6,51.44Z"/>
    <line class="st4" x1="304.77" y1="500" x2="448.77" y2="500"/>
    <line class="st4" x1="376.77" y1="428" x2="376.77" y2="572"/>
    <path class="st4" d="M427.17,448.56c-7.24,4.92-15.22,8.78-23.76,11.44-8.42,2.6-17.36,4-26.64,4s-18.22-1.4-26.64-4c-8.54-2.66-16.52-6.52-23.76-11.44,12.98-12.7,30.76-20.56,50.38-20.56h.04c19.62,0,37.4,7.86,50.38,20.56Z"/>
    <path class="st4" d="M448.77,500c0,20.14-8.28,38.36-21.6,51.44-12.98,12.7-30.76,20.56-50.38,20.56h-.04c-11.18-8.42-20.34-19.36-26.62-32-6-12.06-9.36-25.64-9.36-40s3.36-27.94,9.36-40c6.28-12.64,15.44-23.58,26.62-32h.04c19.62,0,37.4,7.86,50.38,20.56,13.32,13.08,21.6,31.3,21.6,51.44Z"/>
    <path class="st4" d="M427.17,551.44c-12.98,12.7-30.76,20.56-50.38,20.56h-.04c-19.62,0-37.4-7.86-50.38-20.56,7.24-4.92,15.22-8.78,23.76-11.44,8.42-2.6,17.36-4,26.64-4s18.22,1.4,26.64,4c8.54,2.66,16.52,6.52,23.76,11.44Z"/>
    <path class="st4" d="M412.77,500c0,14.36-3.36,27.94-9.36,40-6.28,12.64-15.44,23.58-26.62,32h-.04c-19.62,0-37.4-7.86-50.38-20.56-13.32-13.08-21.6-31.3-21.6-51.44s8.28-38.36,21.6-51.44c12.98-12.7,30.76-20.56,50.38-20.56h.04c11.18,8.42,20.34,19.36,26.62,32,6,12.06,9.36,25.64,9.36,40Z"/>
  </g>
  <g id="anylang">
    <g>
      <path class="st0" d="M474.36,502.63c-.52,0-.9.11-1.12.33s-.43.59-.62,1.12l-2.53,8.54c-.19.72-.28,1.28-.28,1.67,0,.63.12,1.15.37,1.56.24.41.57.74.98.98.41.24.88.43,1.41.58.52.14,1.07.24,1.63.29.26,0,.45.13.56.4.11.27.17.54.17.83s-.06.57-.17.83c-.11.27-.3.4-.56.4-.9,0-1.93-.1-3.09-.29-1.16-.19-2.27-.29-3.32-.29-.97,0-1.91.1-2.81.29-.9.19-1.88.29-2.92.29-.19,0-.35-.12-.48-.36s-.21-.51-.23-.8.02-.57.11-.83c.09-.26.27-.42.53-.47l.84-.15c.56-.14,1.08-.33,1.55-.54.47-.22.9-.57,1.3-1.05.39-.48.78-1.12,1.15-1.92.37-.8.75-1.82,1.13-3.08l12.72-41.2c.11-.39.41-.58.9-.58.52,0,.94.19,1.24.58.94,3.09,1.94,6.4,3.01,9.92,1.07,3.52,2.17,7.11,3.29,10.75,1.13,3.64,2.25,7.27,3.38,10.86,1.13,3.6,2.19,6.99,3.21,10.17.45,1.4.89,2.49,1.32,3.26.43.77.86,1.35,1.29,1.74.43.39.87.65,1.32.79.45.15.94.29,1.46.44.23.05.38.21.48.47.09.27.14.54.14.83s-.05.56-.14.8c-.09.24-.23.36-.42.36-1.2,0-2.35-.1-3.46-.29-1.11-.19-2.35-.29-3.74-.29-1.58,0-3.06.1-4.45.29-1.39.19-2.72.29-3.99.29-.26,0-.46-.13-.59-.4-.13-.26-.2-.57-.2-.9,0-.29.06-.54.17-.76.11-.22.3-.35.56-.4,1.27-.19,2.21-.48,2.81-.87.6-.38.9-1.18.9-2.39,0-.34-.03-.72-.08-1.16s-.18-1.02-.37-1.77c-.19-.75-.45-1.71-.79-2.89-.34-1.18-.79-2.69-1.35-4.53-.19-.63-.44-1.02-.76-1.19-.32-.17-.84-.25-1.55-.25h-9.9ZM484.04,499.81c.52,0,.88-.11,1.07-.33.19-.22.19-.61,0-1.19l-4.89-16.94c-.08-.24-.23-.36-.45-.36s-.38.12-.45.36l-5.12,16.94c-.19.63-.21,1.04-.06,1.23.15.19.43.29.85.29h9.06Z"/>
      <path class="st0" d="M515.51,510.09c0,1.21.02,2.22.06,3.04.04.82.14,1.5.31,2.03s.45.94.84,1.23c.39.29.95.51,1.66.65.23.05.39.18.51.4.11.22.17.47.17.76,0,.24-.06.47-.17.69-.11.22-.28.33-.51.33-.38,0-1.08-.08-2.11-.25s-2.11-.25-3.24-.25c-1.2,0-2.36.08-3.49.25s-2.18.25-3.15.25c-.19,0-.34-.11-.45-.33-.11-.22-.17-.45-.17-.69,0-.29.06-.54.17-.76.11-.22.28-.35.51-.4.94-.15,1.66-.34,2.17-.58.51-.24.88-.6,1.13-1.09.24-.48.38-1.11.42-1.88s.06-1.76.06-2.97v-9.12c0-2.36-.02-4.33-.06-5.9s-.17-2.81-.39-3.73c-.23-.92-.58-1.56-1.07-1.92-.49-.36-1.18-.54-2.08-.54-.23,0-.4-.1-.54-.29-.13-.19-.2-.41-.2-.65,0-.29.06-.53.2-.72.13-.19.31-.29.54-.29.71,0,1.75-.15,3.12-.44,1.37-.29,2.77-.7,4.19-1.23.52-.19.92-.06,1.18.4.26.46.39.98.39,1.56v2.9c0,.1.03.16.08.18.06.02.1-.01.14-.11.26-.53.63-1.12,1.1-1.77.47-.65,1.03-1.27,1.69-1.85.66-.58,1.4-1.06,2.22-1.45.82-.39,1.74-.58,2.76-.58,2.81,0,5.02,1,6.61,3,1.59,2,2.39,5.25,2.39,9.74v12.38c0,1.3.03,2.37.08,3.19.06.82.19,1.48.39,1.99.21.51.52.89.96,1.16.43.26,1.04.47,1.83.62.23.05.39.18.51.4.11.22.17.47.17.76,0,.24-.06.47-.17.69-.11.22-.28.33-.51.33-.49,0-1.29-.08-2.39-.25s-2.22-.25-3.35-.25c-1.2,0-2.35.08-3.43.25s-1.99.25-2.7.25c-.19,0-.34-.11-.45-.33-.11-.22-.17-.45-.17-.69,0-.29.06-.54.17-.76.11-.22.28-.35.51-.4.82-.15,1.45-.36,1.88-.65.43-.29.75-.69.96-1.19s.33-1.13.37-1.88.06-1.68.06-2.79v-11c0-1.21-.04-2.41-.11-3.62-.08-1.21-.28-2.29-.62-3.26-.34-.96-.83-1.76-1.46-2.39-.64-.63-1.52-.94-2.64-.94s-2.11.23-2.95.69c-.84.46-1.56,1.08-2.14,1.85-.58.77-1.02,1.68-1.32,2.72-.3,1.04-.45,2.14-.45,3.29v12.24Z"/>
      <path class="st0" d="M554.17,509.51c.11.29.25.41.42.36.17-.05.29-.17.37-.36,1.16-2.95,2.18-5.78,3.07-8.51.88-2.73,1.66-5.35,2.34-7.85.26-.82.39-1.55.39-2.17,0-.53-.1-.96-.31-1.3-.21-.34-.47-.6-.79-.8-.32-.19-.66-.34-1.01-.43s-.67-.17-.93-.22c-.23-.05-.39-.18-.48-.4s-.14-.45-.14-.69.06-.46.17-.65c.11-.19.26-.29.45-.29.71,0,1.44.06,2.19.18.75.12,1.5.18,2.25.18.86,0,1.75-.06,2.64-.18.9-.12,1.61-.18,2.14-.18.19,0,.33.1.42.29.09.19.14.43.14.72,0,.24-.05.47-.14.69s-.23.33-.42.33c-.56.1-1.03.27-1.41.51-.38.24-.69.59-.96,1.05-.26.46-.52,1.04-.79,1.74-.26.7-.56,1.53-.9,2.5-1.09,3.04-2.21,6.29-3.38,9.74-1.16,3.45-2.4,6.99-3.72,10.61-1.2,3.38-2.43,6.7-3.68,9.95-1.26,3.26-2.47,6.31-3.63,9.16-.3.72-.68,1.56-1.13,2.5s-.98,1.83-1.6,2.68c-.62.84-1.32,1.56-2.11,2.13-.79.58-1.65.87-2.59.87-.86,0-1.69-.3-2.48-.9-.79-.6-1.18-1.58-1.18-2.93,0-1.01.24-1.88.73-2.61s1.13-1.09,1.91-1.09c.34,0,.6.08.79.25.19.17.37.35.53.54.17.19.36.37.56.54s.46.25.76.25c.41,0,.88-.34,1.41-1.01.52-.68,1.08-1.53,1.66-2.57.58-1.04,1.16-2.2,1.74-3.47.58-1.28,1.12-2.52,1.6-3.73s.91-2.29,1.27-3.26c.36-.97.61-1.67.76-2.1.19-.58.28-1.09.28-1.52,0-.48-.07-.92-.23-1.3-1.2-3.19-2.53-6.73-3.99-10.64-1.46-3.91-2.85-7.82-4.16-11.73-.38-1.16-.71-2.1-1.01-2.82s-.61-1.3-.93-1.74-.69-.77-1.1-1.01c-.41-.24-.94-.43-1.58-.58-.19-.05-.33-.18-.42-.4-.09-.22-.14-.45-.14-.69s.06-.46.17-.65c.11-.19.26-.29.45-.29,1.16,0,2.28.06,3.35.18,1.07.12,2.15.18,3.23.18s2.16-.06,3.21-.18c1.05-.12,2.12-.18,3.21-.18.19,0,.33.1.42.29.09.19.14.41.14.65s-.05.47-.14.69c-.09.22-.23.35-.42.4-1.2.19-2.05.48-2.53.87-.49.39-.73.92-.73,1.59,0,.97.17,1.98.51,3.04.79,2.7,1.65,5.41,2.59,8.11.94,2.7,1.89,5.26,2.87,7.68Z"/>
      <path class="st0" d="M574.76,481.06c0-1.5-.07-2.78-.2-3.84s-.39-1.93-.76-2.61c-.38-.68-.91-1.19-1.6-1.56-.69-.36-1.62-.59-2.79-.69-.23,0-.39-.13-.51-.4-.11-.26-.17-.54-.17-.83s.06-.55.17-.8c.11-.24.28-.36.51-.36,1.2,0,2.57.07,4.11.22s2.98.22,4.33.22c.79,0,1.53-.02,2.22-.07.69-.05,1.37-.1,2.03-.15.66-.05,1.32-.1,2-.15.68-.05,1.41-.07,2.19-.07.23,0,.38.12.48.36s.13.51.11.8c-.02.29-.08.57-.2.83-.11.27-.26.4-.45.4-1.16.1-2.1.3-2.81.61-.71.31-1.26.8-1.63,1.45-.38.65-.62,1.51-.73,2.57-.11,1.06-.17,2.41-.17,4.05v25.2c0,1.54.06,2.84.17,3.87.11,1.04.32,1.91.62,2.61.3.7.71,1.24,1.24,1.63.53.39,1.18.72,1.97,1.01.53.14,1.12.25,1.77.33.66.07,1.34.11,2.05.11.9,0,1.74-.05,2.53-.15.79-.09,1.39-.24,1.8-.43.75-.34,1.4-.7,1.94-1.09.54-.39,1-.89,1.38-1.52.37-.63.68-1.41.93-2.35s.44-2.14.59-3.58c.04-.29.17-.48.39-.58s.47-.15.73-.15.5.08.7.22c.21.15.29.34.25.58-.19,2.03-.36,3.92-.51,5.68-.15,1.76-.21,3.56-.17,5.39,0,.15-.08.35-.23.62-.15.27-.51.4-1.07.4h-20.43c-1.46,0-2.87.06-4.22.18-1.35.12-2.68.23-4,.33-.26,0-.46-.12-.59-.36-.13-.24-.2-.5-.2-.79s.06-.57.2-.83.33-.42.59-.47c1.16-.19,2.1-.4,2.81-.62s1.26-.55,1.63-1.01c.37-.46.63-1.13.76-2.03.13-.89.2-2.13.2-3.73v-28.45Z"/>
      <path class="st0" d="M623.83,511.03c0,1.69.12,2.87.37,3.55.24.68.72,1.01,1.43,1.01.41,0,.75-.06,1.01-.18s.64-.37,1.13-.76c.11-.1.23-.1.37,0,.13.1.24.23.34.4s.16.36.2.58c.04.22,0,.4-.11.54-1.46,2.27-3.19,3.4-5.18,3.4-1.09,0-2.02-.38-2.79-1.12-.77-.75-1.34-1.63-1.72-2.64-.07-.24-.19-.26-.34-.07-.98,1.11-2.11,2.03-3.4,2.75-1.29.72-2.92,1.09-4.87,1.09-2.14,0-3.79-.74-4.95-2.21s-1.74-3.56-1.74-6.26c0-3.47,1.26-6.14,3.77-8,2.51-1.86,6.17-2.79,10.97-2.79.07,0,.13-.12.17-.36.04-.24.06-.8.06-1.67v-1.95c0-1.21-.08-2.34-.23-3.4-.15-1.06-.4-1.99-.76-2.79-.36-.8-.85-1.42-1.49-1.88-.64-.46-1.43-.69-2.36-.69-1.39,0-2.51.35-3.38,1.05-.86.7-1.29,1.61-1.29,2.72,0,.53.13,1.05.39,1.56s.4,1.03.4,1.56c0,.68-.26,1.33-.79,1.95-.52.63-1.16.94-1.91.94-1.01,0-1.74-.35-2.17-1.05-.43-.7-.65-1.56-.65-2.57,0-1.21.26-2.35.79-3.44.52-1.09,1.24-2.01,2.14-2.79.9-.77,1.95-1.39,3.15-1.85,1.2-.46,2.46-.69,3.77-.69,3,0,5.36.89,7.09,2.68,1.73,1.79,2.59,4.76,2.59,8.91v14.48ZM618.54,503.86c0-.53-.02-.86-.06-.98-.04-.12-.13-.18-.28-.18-3.08.34-5.35,1.17-6.84,2.5-1.48,1.33-2.22,3.03-2.22,5.1,0,1.45.28,2.67.84,3.66.56.99,1.5,1.48,2.81,1.48.86,0,1.77-.22,2.73-.65s1.81-1.06,2.56-1.88c.3-.38.45-.77.45-1.16v-7.89Z"/>
      <path class="st0" d="M640.09,510.09c0,1.21.02,2.22.06,3.04.04.82.14,1.5.31,2.03s.45.94.84,1.23c.39.29.95.51,1.66.65.23.05.39.18.51.4.11.22.17.47.17.76,0,.24-.06.47-.17.69-.11.22-.28.33-.51.33-.38,0-1.08-.08-2.11-.25s-2.11-.25-3.23-.25c-1.2,0-2.36.08-3.49.25-1.12.17-2.18.25-3.15.25-.19,0-.34-.11-.45-.33-.11-.22-.17-.45-.17-.69,0-.29.06-.54.17-.76.11-.22.28-.35.51-.4.94-.15,1.66-.34,2.17-.58.51-.24.88-.6,1.13-1.09.24-.48.38-1.11.42-1.88.04-.77.06-1.76.06-2.97v-9.12c0-2.36-.02-4.33-.06-5.9-.04-1.57-.17-2.81-.4-3.73-.23-.92-.58-1.56-1.07-1.92-.49-.36-1.18-.54-2.08-.54-.23,0-.4-.1-.53-.29-.13-.19-.2-.41-.2-.65,0-.29.06-.53.2-.72.13-.19.31-.29.53-.29.71,0,1.75-.15,3.12-.44,1.37-.29,2.77-.7,4.19-1.23.53-.19.92-.06,1.18.4.26.46.39.98.39,1.56v2.9c0,.1.03.16.08.18.06.02.1-.01.14-.11.26-.53.63-1.12,1.1-1.77.47-.65,1.03-1.27,1.69-1.85s1.4-1.06,2.22-1.45c.83-.39,1.74-.58,2.76-.58,2.81,0,5.02,1,6.61,3,1.59,2,2.39,5.25,2.39,9.74v12.38c0,1.3.03,2.37.08,3.19s.19,1.48.39,1.99.52.89.96,1.16c.43.26,1.04.47,1.83.62.23.05.39.18.51.4.11.22.17.47.17.76,0,.24-.06.47-.17.69-.11.22-.28.33-.51.33-.49,0-1.29-.08-2.39-.25s-2.22-.25-3.35-.25c-1.2,0-2.35.08-3.43.25-1.09.17-1.99.25-2.7.25-.19,0-.34-.11-.45-.33-.11-.22-.17-.45-.17-.69,0-.29.06-.54.17-.76.11-.22.28-.35.51-.4.82-.15,1.45-.36,1.89-.65.43-.29.75-.69.96-1.19s.33-1.13.37-1.88.06-1.68.06-2.79v-11c0-1.21-.04-2.41-.11-3.62-.07-1.21-.28-2.29-.62-3.26-.34-.96-.82-1.76-1.46-2.39-.64-.63-1.52-.94-2.64-.94s-2.11.23-2.95.69c-.84.46-1.56,1.08-2.14,1.85-.58.77-1.02,1.68-1.32,2.72s-.45,2.14-.45,3.29v12.24Z"/>
      <path class="st0" d="M686.23,490.76c.52,1.01.91,2.09,1.15,3.22.24,1.13.38,2.28.42,3.44,0,2.13-.31,3.99-.93,5.61-.62,1.62-1.46,2.98-2.53,4.09-1.07,1.11-2.3,1.95-3.69,2.53-1.39.58-2.87.87-4.45.87-.45,0-1.03.03-1.74.07-.71.05-1.41.14-2.08.29-.68.14-1.25.37-1.72.69-.47.32-.7.76-.7,1.34,0,.43.19.8.56,1.09.37.29.83.52,1.38.69.54.17,1.09.29,1.63.36.54.07.98.11,1.32.11,2.7.24,5.12.54,7.26.9,2.14.36,3.95.96,5.43,1.77,1.48.82,2.62,1.97,3.4,3.44s1.18,3.39,1.18,5.76c0,2.08-.32,4.01-.96,5.79s-1.6,3.33-2.87,4.63c-1.28,1.3-2.84,2.33-4.7,3.08-1.86.75-4.01,1.12-6.44,1.12-2.03,0-3.88-.23-5.57-.69-1.69-.46-3.14-1.17-4.36-2.14-1.22-.96-2.16-2.2-2.81-3.69s-.98-3.28-.98-5.36c0-1.21.13-2.31.4-3.3.26-.99.62-1.87,1.07-2.64.45-.77.96-1.46,1.52-2.06.56-.6,1.14-1.1,1.74-1.48-.86-.39-1.65-.93-2.36-1.63-.71-.7-1.07-1.82-1.07-3.37,0-1.11.2-2.05.59-2.82.4-.77.92-1.4,1.58-1.88.66-.48,1.39-.83,2.19-1.05s1.6-.35,2.39-.4c.04,0,.06-.02.06-.07s-.02-.07-.06-.07c-1.91-.96-3.41-2.3-4.5-4.02-1.09-1.71-1.63-4.02-1.63-6.91,0-1.98.28-3.78.84-5.39.56-1.62,1.36-2.99,2.39-4.13s2.28-2.02,3.74-2.64c1.46-.63,3.08-.94,4.84-.94,1.99,0,3.57.36,4.75,1.09,1.18.72,2.26,1.67,3.23,2.82.71-.92,1.56-1.69,2.53-2.32.97-.63,2.06-.94,3.26-.94.41,0,.87.05,1.38.15.51.1.97.28,1.41.54.43.27.79.61,1.07,1.05.28.43.42,1.01.42,1.74,0,.82-.17,1.56-.51,2.21-.34.65-.99.98-1.97.98-.71,0-1.18-.19-1.41-.58-.23-.39-.39-.8-.51-1.23-.11-.43-.24-.84-.4-1.23-.15-.39-.51-.58-1.07-.58-.6,0-1.2.19-1.8.58-.6.39-1.05.89-1.35,1.52ZM670.98,521.1c-.64.68-1.15,1.64-1.52,2.9-.38,1.25-.56,2.51-.56,3.76,0,1.79.29,3.34.87,4.67s1.34,2.44,2.28,3.33c.94.89,2.02,1.56,3.24,1.99,1.22.43,2.47.65,3.74.65,1.13,0,2.18-.24,3.18-.72.99-.48,1.87-1.13,2.62-1.95.75-.82,1.35-1.79,1.8-2.9.45-1.11.68-2.32.68-3.62,0-1.64-.42-2.97-1.27-3.98s-2-1.81-3.46-2.39c-1.46-.58-3.19-.99-5.18-1.23-1.99-.24-4.13-.41-6.42-.51ZM676.38,507.85c1.95,0,3.35-.82,4.19-2.46.84-1.64,1.27-4.03,1.27-7.17,0-1.59-.07-3.04-.2-4.34-.13-1.3-.39-2.43-.76-3.37-.38-.94-.87-1.67-1.49-2.17-.62-.51-1.42-.76-2.39-.76-1.2,0-2.17.33-2.9.98-.73.65-1.3,1.48-1.72,2.5-.41,1.01-.69,2.15-.85,3.4-.15,1.25-.22,2.49-.22,3.69,0,3.19.43,5.6,1.29,7.24.86,1.64,2.12,2.46,3.77,2.46Z"/>
    </g>
  </g>
  <g id="Filled_back_up" class="st14">
    <path class="st5" d="M572,500c0,20.14-8.28,38.36-21.6,51.44-12.98,12.7-30.76,20.56-50.38,20.56h-.04c-19.62,0-37.4-7.86-50.38-20.56-13.32-13.08-21.6-31.3-21.6-51.44s8.28-38.36,21.6-51.44c12.98-12.7,30.76-20.56,50.38-20.56h.04c19.62,0,37.4,7.86,50.38,20.56,13.32,13.08,21.6,31.3,21.6,51.44Z"/>
    <line class="st5" x1="428" y1="500" x2="572" y2="500"/>
    <line class="st5" x1="500" y1="428" x2="500" y2="572"/>
    <path class="st5" d="M550.4,448.56c-7.24,4.92-15.22,8.78-23.76,11.44-8.42,2.6-17.36,4-26.64,4s-18.22-1.4-26.64-4c-8.54-2.66-16.52-6.52-23.76-11.44,12.98-12.7,30.76-20.56,50.38-20.56h.04c19.62,0,37.4,7.86,50.38,20.56Z"/>
    <path class="st5" d="M572,500c0,20.14-8.28,38.36-21.6,51.44-12.98,12.7-30.76,20.56-50.38,20.56h-.04c-11.18-8.42-20.34-19.36-26.62-32-6-12.06-9.36-25.64-9.36-40s3.36-27.94,9.36-40c6.28-12.64,15.44-23.58,26.62-32h.04c19.62,0,37.4,7.86,50.38,20.56,13.32,13.08,21.6,31.3,21.6,51.44Z"/>
    <path class="st5" d="M550.4,551.44c-12.98,12.7-30.76,20.56-50.38,20.56h-.04c-19.62,0-37.4-7.86-50.38-20.56,7.24-4.92,15.22-8.78,23.76-11.44,8.42-2.6,17.36-4,26.64-4s18.22,1.4,26.64,4c8.54,2.66,16.52,6.52,23.76,11.44Z"/>
    <path class="st5" d="M536,500c0,14.36-3.36,27.94-9.36,40-6.28,12.64-15.44,23.58-26.62,32h-.04c-19.62,0-37.4-7.86-50.38-20.56-13.32-13.08-21.6-31.3-21.6-51.44s8.28-38.36,21.6-51.44c12.98-12.7,30.76-20.56,50.38-20.56h.04c11.18,8.42,20.34,19.36,26.62,32,6,12.06,9.36,25.64,9.36,40Z"/>
    <text/>
  </g>
  <g id="Layer_1_copy" class="st14">
    <text/>
    <text/>
    <g class="st14">
      <path class="st5" d="M586.4,668.07c-12.98-12.7-30.76-20.56-50.38-20.56h-.04c-19.62,0-37.4,7.86-50.38,20.56-13.32,13.08-21.6,31.3-21.6,51.44s8.28,38.36,21.6,51.44c12.98,12.7,30.76,20.56,50.38,20.56h.04c19.62,0,37.4-7.86,50.38-20.56,13.32-13.08,21.6-31.3,21.6-51.44s-8.28-38.36-21.6-51.44ZM536,755.51c-9.28,0-18.22,1.4-26.64,4-6-12.06-9.36-25.64-9.36-40s3.36-27.94,9.36-40c8.42,2.6,17.36,4,26.64,4s18.22-1.4,26.64-4c6,12.06,9.36,25.64,9.36,40s-3.36,27.94-9.36,40c-8.42-2.6-17.36-4-26.64-4Z"/>
      <line class="st5" x1="608" y1="719.51" x2="572" y2="719.51"/>
      <line class="st5" x1="500" y1="719.51" x2="464" y2="719.51"/>
      <line class="st5" x1="536" y1="791.51" x2="536" y2="755.51"/>
      <line class="st5" x1="536" y1="683.51" x2="536" y2="647.51"/>
      <path class="st5" d="M586.4,668.07c-7.24,4.92-15.22,8.78-23.76,11.44-8.42,2.6-17.36,4-26.64,4s-18.22-1.4-26.64-4c-8.54-2.66-16.52-6.52-23.76-11.44,12.98-12.7,30.76-20.56,50.38-20.56h.04c19.62,0,37.4,7.86,50.38,20.56Z"/>
      <path class="st5" d="M608,719.51c0,20.14-8.28,38.36-21.6,51.44-12.98,12.7-30.76,20.56-50.38,20.56h-.04c-11.18-8.42-20.34-19.36-26.62-32,8.42-2.6,17.36-4,26.64-4s18.22,1.4,26.64,4c6-12.06,9.36-25.64,9.36-40s-3.36-27.94-9.36-40c-8.42,2.6-17.36,4-26.64,4s-18.22-1.4-26.64-4c6.28-12.64,15.44-23.58,26.62-32h.04c19.62,0,37.4,7.86,50.38,20.56,13.32,13.08,21.6,31.3,21.6,51.44Z"/>
      <path class="st5" d="M586.4,770.95c-12.98,12.7-30.76,20.56-50.38,20.56h-.04c-19.62,0-37.4-7.86-50.38-20.56,7.24-4.92,15.22-8.78,23.76-11.44,8.42-2.6,17.36-4,26.64-4s18.22,1.4,26.64,4c8.54,2.66,16.52,6.52,23.76,11.44Z"/>
      <path class="st5" d="M536,755.51c9.28,0,18.22,1.4,26.64,4-6.28,12.64-15.44,23.58-26.62,32h-.04c-19.62,0-37.4-7.86-50.38-20.56-13.32-13.08-21.6-31.3-21.6-51.44s8.28-38.36,21.6-51.44c12.98-12.7,30.76-20.56,50.38-20.56h.04c11.18,8.42,20.34,19.36,26.62,32-8.42,2.6-17.36,4-26.64,4s-18.22-1.4-26.64-4c-6,12.06-9.36,25.64-9.36,40s3.36,27.94,9.36,40c8.42-2.6,17.36-4,26.64-4Z"/>
      <text class="st9" transform="translate(539.87 735.99) rotate(.02) scale(1.11 1)"><tspan x="0" y="0">g</tspan></text>
      <text class="st10" transform="translate(505.07 737.49) rotate(.02) scale(.75 1)"><tspan x="0" y="0">A</tspan></text>
    </g>
    <text class="st8" transform="translate(617.43 719.51) scale(1.28 1)"><tspan class="st11" x="0" y="0">A</tspan><tspan class="st1" x="38.55" y="0">ny</tspan><tspan class="st1" x="0" y="49">Lan</tspan><tspan class="st11" x="88.65" y="49">g</tspan></text>
  </g>
  <g id="Layer_1" class="st14">
    <text/>
    <text/>
    <g>
      <path class="st5" d="M544.25,448.56c-12.98-12.7-30.76-20.56-50.38-20.56h-.04c-19.62,0-37.4,7.86-50.38,20.56-13.32,13.08-21.6,31.3-21.6,51.44s8.28,38.36,21.6,51.44c12.98,12.7,30.76,20.56,50.38,20.56h.04c19.62,0,37.4-7.86,50.38-20.56,13.32-13.08,21.6-31.3,21.6-51.44s-8.28-38.36-21.6-51.44ZM493.85,536c-9.28,0-18.22,1.4-26.64,4-6-12.06-9.36-25.64-9.36-40s3.36-27.94,9.36-40c8.42,2.6,17.36,4,26.64,4s18.22-1.4,26.64-4c6,12.06,9.36,25.64,9.36,40s-3.36,27.94-9.36,40c-8.42-2.6-17.36-4-26.64-4Z"/>
      <line class="st5" x1="565.85" y1="500" x2="529.85" y2="500"/>
      <line class="st5" x1="457.85" y1="500" x2="421.85" y2="500"/>
      <line class="st5" x1="493.85" y1="572" x2="493.85" y2="536"/>
      <line class="st5" x1="493.85" y1="464" x2="493.85" y2="428"/>
      <path class="st5" d="M544.25,448.56c-7.24,4.92-15.22,8.78-23.76,11.44-8.42,2.6-17.36,4-26.64,4s-18.22-1.4-26.64-4c-8.54-2.66-16.52-6.52-23.76-11.44,12.98-12.7,30.76-20.56,50.38-20.56h.04c19.62,0,37.4,7.86,50.38,20.56Z"/>
      <path class="st5" d="M565.85,500c0,20.14-8.28,38.36-21.6,51.44-12.98,12.7-30.76,20.56-50.38,20.56h-.04c-11.18-8.42-20.34-19.36-26.62-32,8.42-2.6,17.36-4,26.64-4s18.22,1.4,26.64,4c6-12.06,9.36-25.64,9.36-40s-3.36-27.94-9.36-40c-8.42,2.6-17.36,4-26.64,4s-18.22-1.4-26.64-4c6.28-12.64,15.44-23.58,26.62-32h.04c19.62,0,37.4,7.86,50.38,20.56,13.32,13.08,21.6,31.3,21.6,51.44Z"/>
      <path class="st5" d="M544.25,551.44c-12.98,12.7-30.76,20.56-50.38,20.56h-.04c-19.62,0-37.4-7.86-50.38-20.56,7.24-4.92,15.22-8.78,23.76-11.44,8.42-2.6,17.36-4,26.64-4s18.22,1.4,26.64,4c8.54,2.66,16.52,6.52,23.76,11.44Z"/>
      <path class="st5" d="M493.85,536c9.28,0,18.22,1.4,26.64,4-6.28,12.64-15.44,23.58-26.62,32h-.04c-19.62,0-37.4-7.86-50.38-20.56-13.32-13.08-21.6-31.3-21.6-51.44s8.28-38.36,21.6-51.44c12.98-12.7,30.76-20.56,50.38-20.56h.04c11.18,8.42,20.34,19.36,26.62,32-8.42,2.6-17.36,4-26.64,4s-18.22-1.4-26.64-4c-6,12.06-9.36,25.64-9.36,40s3.36,27.94,9.36,40c8.42-2.6,17.36-4,26.64-4Z"/>
      <text class="st9" transform="translate(496.81 519.81) rotate(.02) scale(1.11 1)"><tspan x="0" y="0">g</tspan></text>
      <text class="st6" transform="translate(463.35 513.98) rotate(.02) scale(.75 1)"><tspan x="0" y="0">A</tspan></text>
      <text class="st7" transform="translate(578.15 485.76) scale(1.44 1)"><tspan class="st13"><tspan class="st11" x="0" y="0">A</tspan><tspan class="st2" x="34.61" y="0">ny</tspan></tspan><tspan class="st3" x="0" y="56.66">Lan</tspan><tspan class="st12" x="79.56" y="56.66">g</tspan></text>
    </g>
  </g>
</svg>